<mxfile host="app.diagrams.net" modified="2024-06-25T18:53:40.047Z" agent="Mozilla/5.0 (Windows NT 10.0; Win64; x64) AppleWebKit/537.36 (KHTML, like Gecko) Chrome/126.0.0.0 Safari/537.36" version="24.6.2" etag="qgmebUj4HRMzuwGQirn1" type="github">
  <diagram name="Page-1" id="ahCNRkm_eGCa7g_5XEhs">
    <mxGraphModel>
      <root>
        <mxCell id="0" />
        <mxCell id="1" parent="0" />
      </root>
    </mxGraphModel>
  </diagram>
</mxfile>
